<svg xmlns="http://www.w3.org/2000/svg" width="1400" height="900"><rect x="0" y="0" width="1400" height="900" fill="#0f172a" /><rect x="100" y="250" width="260" height="190" rx="12" fill="#111827" stroke="#38bdf8" stroke-width="2" /><text x="112" y="276" fill="#e2e8f0" font-size="16" font-family="Arial" font-weight="bold">LOCATION</text><text x="112" y="300" fill="#cbd5f5" font-size="13" font-family="Arial">id PK</text><text x="112" y="318" fill="#cbd5f5" font-size="13" font-family="Arial">name</text><text x="112" y="336" fill="#cbd5f5" font-size="13" font-family="Arial">code</text><text x="112" y="354" fill="#cbd5f5" font-size="13" font-family="Arial">locationType</text><text x="112" y="372" fill="#cbd5f5" font-size="13" font-family="Arial">parent_id FK</text><rect x="450" y="100" width="260" height="210" rx="12" fill="#111827" stroke="#38bdf8" stroke-width="2" /><text x="462" y="126" fill="#e2e8f0" font-size="16" font-family="Arial" font-weight="bold">PATIENT</text><text x="462" y="150" fill="#cbd5f5" font-size="13" font-family="Arial">id PK</text><text x="462" y="168" fill="#cbd5f5" font-size="13" font-family="Arial">firstName</text><text x="462" y="186" fill="#cbd5f5" font-size="13" font-family="Arial">lastName</text><text x="462" y="204" fill="#cbd5f5" font-size="13" font-family="Arial">email</text><text x="462" y="222" fill="#cbd5f5" font-size="13" font-family="Arial">phoneNumber</text><text x="462" y="240" fill="#cbd5f5" font-size="13" font-family="Arial">nationalId</text><text x="462" y="258" fill="#cbd5f5" font-size="13" font-family="Arial">dateOfBirth</text><text x="462" y="276" fill="#cbd5f5" font-size="13" font-family="Arial">location_id FK</text><rect x="450" y="480" width="260" height="200" rx="12" fill="#111827" stroke="#38bdf8" stroke-width="2" /><text x="462" y="506" fill="#e2e8f0" font-size="16" font-family="Arial" font-weight="bold">DOCTOR</text><text x="462" y="530" fill="#cbd5f5" font-size="13" font-family="Arial">id PK</text><text x="462" y="548" fill="#cbd5f5" font-size="13" font-family="Arial">firstName</text><text x="462" y="566" fill="#cbd5f5" font-size="13" font-family="Arial">lastName</text><text x="462" y="584" fill="#cbd5f5" font-size="13" font-family="Arial">email</text><text x="462" y="602" fill="#cbd5f5" font-size="13" font-family="Arial">licenseNumber</text><text x="462" y="620" fill="#cbd5f5" font-size="13" font-family="Arial">specialization</text><text x="462" y="638" fill="#cbd5f5" font-size="13" font-family="Arial">location_id FK</text><rect x="820" y="120" width="300" height="220" rx="12" fill="#111827" stroke="#38bdf8" stroke-width="2" /><text x="832" y="146" fill="#e2e8f0" font-size="16" font-family="Arial" font-weight="bold">PRESCRIPTION</text><text x="832" y="170" fill="#cbd5f5" font-size="13" font-family="Arial">id PK</text><text x="832" y="188" fill="#cbd5f5" font-size="13" font-family="Arial">prescriptionNumber</text><text x="832" y="206" fill="#cbd5f5" font-size="13" font-family="Arial">issueDate</text><text x="832" y="224" fill="#cbd5f5" font-size="13" font-family="Arial">expiryDate</text><text x="832" y="242" fill="#cbd5f5" font-size="13" font-family="Arial">diagnosis</text><text x="832" y="260" fill="#cbd5f5" font-size="13" font-family="Arial">notes</text><text x="832" y="278" fill="#cbd5f5" font-size="13" font-family="Arial">patient_id FK</text><text x="832" y="296" fill="#cbd5f5" font-size="13" font-family="Arial">doctor_id FK</text><rect x="820" y="480" width="300" height="200" rx="12" fill="#111827" stroke="#38bdf8" stroke-width="2" /><text x="832" y="506" fill="#e2e8f0" font-size="16" font-family="Arial" font-weight="bold">MEDICATION</text><text x="832" y="530" fill="#cbd5f5" font-size="13" font-family="Arial">id PK</text><text x="832" y="548" fill="#cbd5f5" font-size="13" font-family="Arial">name</text><text x="832" y="566" fill="#cbd5f5" font-size="13" font-family="Arial">code</text><text x="832" y="584" fill="#cbd5f5" font-size="13" font-family="Arial">dosageForm</text><text x="832" y="602" fill="#cbd5f5" font-size="13" font-family="Arial">strength</text><text x="832" y="620" fill="#cbd5f5" font-size="13" font-family="Arial">manufacturer</text><rect x="1180" y="330" width="200" height="120" rx="12" fill="#111827" stroke="#38bdf8" stroke-width="2" /><text x="1192" y="356" fill="#e2e8f0" font-size="16" font-family="Arial" font-weight="bold">PRESCRIPTION_MEDICATIONS</text><text x="1192" y="380" fill="#cbd5f5" font-size="13" font-family="Arial">prescription_id FK</text><text x="1192" y="398" fill="#cbd5f5" font-size="13" font-family="Arial">medication_id FK</text><line x1="360" y1="300" x2="450" y2="200" stroke="#6366f1" stroke-width="2" /><text x="365" y="295" fill="#facc15" font-size="12" font-family="Arial">1</text><text x="415" y="195" fill="#facc15" font-size="12" font-family="Arial">0..*</text><line x1="360" y1="350" x2="450" y2="560" stroke="#6366f1" stroke-width="2" /><text x="365" y="345" fill="#facc15" font-size="12" font-family="Arial">1</text><text x="415" y="555" fill="#facc15" font-size="12" font-family="Arial">0..*</text><line x1="710" y1="200" x2="820" y2="200" stroke="#6366f1" stroke-width="2" /><text x="715" y="195" fill="#facc15" font-size="12" font-family="Arial">1</text><text x="785" y="195" fill="#facc15" font-size="12" font-family="Arial">0..*</text><line x1="710" y1="560" x2="820" y2="260" stroke="#6366f1" stroke-width="2" /><text x="715" y="555" fill="#facc15" font-size="12" font-family="Arial">1</text><text x="785" y="255" fill="#facc15" font-size="12" font-family="Arial">0..*</text><line x1="1120" y1="230" x2="1180" y2="360" stroke="#6366f1" stroke-width="2" /><text x="1125" y="225" fill="#facc15" font-size="12" font-family="Arial">1</text><text x="1145" y="355" fill="#facc15" font-size="12" font-family="Arial">0..*</text><line x1="1120" y1="560" x2="1180" y2="420" stroke="#6366f1" stroke-width="2" /><text x="1125" y="555" fill="#facc15" font-size="12" font-family="Arial">1</text><text x="1145" y="415" fill="#facc15" font-size="12" font-family="Arial">0..*</text><text x="430" y="50" fill="#e2e8f0" font-size="28" font-family="Arial" font-weight="bold">MediConnect RW &#8212; Professional ERD</text></svg>